<svg version="1" xmlns="http://www.w3.org/2000/svg" width="877.333" height="877.333" viewBox="0 0 658.000000 658.000000"><path d="M289.8 69.7c-1.2.3-1.8 1.4-1.8 3.5 0 2.4.3 2.9 1.6 2.4 3.4-1.3 16.9-4.6 18.8-4.6 1.7 0 1.8-.2.6-1-1.5-1-15.9-1.2-19.2-.3zM261.5 73.9c-4.1 2.4-8.7 8.3-7.6 9.4 1.3 1.3 4.9-.1 6.1-2.4 1.4-2.6 7.1-2.6 9.5.1 1.4 1.5 1.5 2.3.6 3.4-1.3 1.5.1 3.2 1.8 2.1 1.1-.6 5.1 4.1 5.1 6.1 0 1.5 10.7 5.7 12.1 4.8.6-.3 1.5-.1 2.2.4.7.6 2.5.8 4.2.7 1.6-.2 3.7.2 4.5 1 1 .9 2 1.1 3 .5 2.5-1.6 3.4-1.1 1.7.8-1 1-1.7 2.4-1.7 3 0 .7-.8 2-1.8 3s-2.5 2.8-3.3 3.9c-1 1.5-1.9 1.9-2.9 1.3-1.1-.7-1.1-1.1-.1-2.3 1-1.3.7-1.6-1.9-2.2-2.1-.5-3-1.1-2.6-2.1.3-.8.1-1.4-.4-1.4-.6 0-1 .5-1 1.2 0 1.3-1.4.2-1.6-1.3-.1-.5-.2-1.1-.3-1.4 0-.3-1.4.1-3.1 1-3.8 2-4 1.9-4.1-.8 0-1.2-.3-1.6-.6-1-.6 1.7-3.3 1.6-3.3-.1 0-2.1-8.2-9.9-9-8.5-.4.6-.5 2-.3 3 .4 1.4 0 1.9-1.5 1.9-1.2 0-2.4.4-2.7 1-1.4 2.3-2.5.7-2.6-3.8-.1-2.6-.4-3.7-.6-2.4-.3 1.3-1.6 2.7-3 3.3-1.7.6-2.3 1.4-1.9 2.5.3.8-.1 2.6-1 3.9l-1.6 2.5 4.2-.5c2.5-.2 5.2-1.3 6.5-2.5l2.3-2.2-.8 3.6c-.4 1.9-1.5 4.2-2.4 5.1-.9.9-1.6 2.6-1.7 3.8 0 1.2-.7.1-1.5-2.6-1.6-5.2-1.9-5.4-4-3.3-2 2.1-1.7 2.8.6 1.6 2.3-1.2 2.7.2.6 1.9-2.9 2.4-5.2-4.5-3.1-9.4.8-1.7.7-1.8-.7-.7-.9.7-1.9 2.5-2.3 3.9-.5 2.1-.8 2.4-1.6 1.2-2.1-3.3 1.8-12.6 4.8-11.5.7.3 1.9-.5 2.7-1.6 2-2.8 1.2-3.6-1.2-1.5-1 1-2.6 1.7-3.4 1.7-.9 0-3.3 2.7-5.4 6-2.1 3.3-3.9 5.8-4.2 5.6-.2-.2-.4-1.8-.4-3.4-.1-2.1-.5-2.9-1.4-2.5-.8.3-1.1.9-.9 1.4.3.5-.6 1.1-2 1.5-1.6.4-2.8 1.6-3.2 3.3-.7 2.4-.8 2.3-1.3-1.4l-.5-4-1.5 2.9c-.8 1.7-4 4.9-7 7.3-3 2.4-7.5 6.3-10 8.8-2.5 2.5-5.1 4.5-5.7 4.5-.7 0-1.9 1.3-2.8 3-1.6 3-4 4-4.7 1.8-.3-.7-2.1 0-5 2-2.6 1.8-4.8 2.7-5 2.1-.2-.6-1.6.1-3.2 1.6-1.5 1.4-5.1 3.8-7.9 5.3-2.9 1.5-7.3 4.9-9.9 7.7-2.7 2.7-4.8 4.4-4.8 3.7 0-3.1 4.5-9.5 9.1-13 2.7-2 7.5-5.9 10.6-8.5 3.9-3.5 6.1-4.7 7.5-4.3 1.1.2 3.1-.2 4.4-1 1.3-.9 2.9-1.2 3.5-.8.7.4.9.3.5-.4-.3-.6 1.7-2.2 5.1-3.8 3.2-1.6 8.3-4.9 11.4-7.4 3-2.5 7.2-5.6 9.2-6.9 2-1.2 3.7-2.6 3.7-3.1 0-1.3 6.3-7.1 10.8-9.7 5.6-3.3 5.4-4.7-.7-4.1-6.3.6-18.6 6.5-33.3 15.9-14.2 9.1-18.1 12.1-28.2 21.4-19 17.5-22.5 22.6-24.6 36.1-.9 5.5-2.4 9.1-7.7 18.2-9.1 15.8-11.1 22.5-12.3 42.9-.6 9.1-1.3 16.9-1.6 17.4-1.1 1.9-.4 19.6 1.1 24.9.8 3 1.5 8 1.5 11 0 3.1 1.1 11.8 2.4 19.5 2.8 16 4.4 31.2 4.5 43.5.1 7.7 0 8.3-1.3 6.1-.7-1.3-1.5-1.9-1.7-1.3-.3.8-1.6.8-4.7 0-2.3-.6-4.5-.8-4.8-.6-.2.3.2 2.5 1 4.9.8 2.4 2.2 7.1 3.1 10.4 1.7 5.9 3.7 10.1 7.5 16 1.9 2.8 3 5.1 6.7 13.5 5.9 13.3 13.9 28.8 15.7 30.5 2.1 1.9 3.6 4.5 4.1 7.1.2.6.6 2.1 1 3.3.5 1.6.2 2.1-1.1 2.1s-1.4.3-.4 1.5c.7.8 1.6 1.3 2 1 1.2-.8 6 4.6 6.6 7.4.3 1.4.9 3.5 1.4 4.6.5 1.1 1.4 4.2 2 7 .6 2.7 1.8 5.8 2.7 6.7.9 1 1.3 2.6 1 4-.4 1.2-.2 2.7.4 3.4.5.6 1.6 3.4 2.3 6 .7 2.7 3.6 10.3 6.4 16.9 3.6 8.6 4.7 12.5 4.1 13.7-.5.9-3 3.4-5.6 5.4-7.6 6-13.2 11.6-16.4 16.1-1.6 2.3-4.1 4.8-5.6 5.5-3.3 1.6-9.9 12.7-15.5 25.7-4.2 9.9-9.8 19.9-21.7 38.3-10.4 16-18.5 26.4-28 35.8-4.8 4.7-13.1 13.3-18.6 19.3l-10 10.7H658V532.2l-3.7.2c-2.1.2-5 .3-6.5.4-1.8.1-2.8.8-2.8 1.7 0 2.7-1.8 1.6-3.9-2.5-1.9-3.6-1.9-3.9-.2-2.9 2.2 1.4 7.5-.1 7.9-2.3.3-1.5-6.4-4.3-9.8-4.1-2.1.2-5.9-4.4-12.4-15.2-10.3-17-23.4-36.6-27.5-41.5-3.2-3.7-4.1-2.7-2.1 2.4.6 1.6.6 2.7 0 3.1-.6.4-1.3-.1-1.6-1-.5-1.2-1.4-1.5-3-1.1-2.7.7-2.9.4-1.2-2.7 1.1-2.1 1.1-2.1 1.9-.2.7 1.9.8 1.9.8-.2.1-1.3-.7-2.4-1.8-2.8-1.1-.3-2.2-1.2-2.5-2-.3-.8-1.7-1.5-3.1-1.5-1.4 0-2.5-.5-2.5-1 0-.6-1.1-1.5-2.5-2s-2.5-1.7-2.5-2.6c0-1.1-.6-1.5-1.9-1.1-1.3.3-2.6-.4-3.9-2.2-1-1.4-3.9-4-6.3-5.6-2.4-1.6-6.7-5.3-9.5-8.2-2.8-2.9-5.4-5-5.7-4.6-.4.3-.7-.1-.7-1s-.4-1.7-1-1.7c-.5 0-1-.7-1-1.5s-.6-1.2-1.4-.9c-.8.3-1.7-.2-2-1.3-1.9-5.6-20.1-19.6-29.4-22.7-5.6-1.9-3.4-1.9-51.2.3-16.4.7-18.9 1.1-22.2 3.1-2.9 1.7-3.7 2.7-3.3 4.3 5.8 28.3 5.9 29.3 2.7 32.2-1.5 1.4-3.5 2.5-4.4 2.5-1.8 0-4.8-4.7-4.8-7.5 0-.8-.7-1.5-1.5-1.5-.9 0-1.2.6-.9 1.5.7 1.8-.5 1.9-2.8.2-1.1-.9-1.4-1.8-.7-2.8 1.3-2 1.1-2.9-.6-2.9-.8 0-1.5-.5-1.5-1.2 0-2-1.4.2-1.5 2.5-.1 1.2-.8 3.7-1.5 5.5-1 2.7-1.5 3-2.7 2.1-2-1.8-3.7.3-3.7 4.6 0 4.1-2.2 4.8-3.2 1-.7-2.9-1.6-3.1-3.5-.9-1.4 1.7-9.4 7.4-10.3 7.4-1.3 0-.5-3.1.9-3.6 2.6-1 1.8-3.2-1-2.6-2 .3-2.4.8-1.9 2.8.4 1.5.2 2.4-.5 2.4-.6 0-1.1-1-1.1-2.3v-2.2l-2 2.5c-1.5 1.9-2 2.1-2 .9 0-1.9-2-2.9-5.8-2.9-2 0-2.3-.3-1.3-.9 1-.7 1.4-2.8 1.2-7.8-.2-7.8-.8-10.6-2.2-9.7-.5.3-.7 1-.3 1.5.3.6.3 1.8-.1 2.7-.5 1.3-1 .8-2.2-2.3-.8-2.2-1.6-5.1-1.7-6.5-.2-1.4-.7-2.3-1.2-2.1-.5.2-.8 1.2-.6 2.2.2.9-.1 2-.7 2.3-1.3.9-4.1-2.2-4.1-4.5 0-1.9-.1-1.9-2.2.1l-2.3 2.1-.3-2.2c-.2-1.2.2-2.5.9-2.9.7-.5.9-1.5.4-2.6-.8-1.7-.9-1.7-1.2.3-.6 3-1.7 2.9-3.1-.2-.9-2-.9-2.6.1-2.4 3.3.4 3.8-.2 1.6-1.9-1.6-1.4-2-2.4-1.4-3.8.4-1 .7-2.5.6-3.2-.1-.6.3-1.2.9-1.2.5 0 1-.5 1-1 0-.6-.9-1-2-1s-2-.5-2-1c0-.6.7-1 1.5-1 1.4 0 1.4-.3 0-3-1.8-3.4-1.8-3.4-4.6-1.8-1.8 1.1-2.3 1-4-1.4-1.1-1.4-3.3-2.9-4.9-3.3-1.6-.4-2.9-1-2.8-1.3.3-1.5-2.6-6.2-3.9-6.2-.7 0-1.3-.6-1.3-1.3 0-2-2.9-4.2-7.8-5.7-2.4-.7-4.8-2.2-5.3-3.2-.6-1-1.4-1.6-1.8-1.4-.4.3-2.3-.8-4.1-2.4-1.9-1.7-3.8-3-4.2-3-.5 0-3.7-1.9-7.2-4.3-8.5-5.8-9.4-6.2-15.3-7.7-5.8-1.5-7.4-.9-5.1 1.7.9 1 2.1 3.5 2.7 5.5.7 2.1 1.6 4 2.1 4.3 1.5.9 2.3 8.5 1 10-1.4 1.7-9 2.1-9 .5 0-.5-1.6-.9-3.5-.8-2.6.1-4-.5-5.1-2-.8-1.2-2.5-2.2-3.7-2.2-2.8 0-8.6 3.5-9.4 5.8-1.2 3.1-3.1 4.4-5 3.4-1-.5-3.9-1.2-6.5-1.4-3.9-.5-4.7-.3-5.1 1.3-.6 2.4-3.2 2.4-4.9.1-3.6-4.7-7.1-4.8-12-.2-1.2 1.1-2.5 2-3 2-.4 0-.8.9-.8 2 0 2.4-1.5 2.7-2.4.4-1.5-4 .1-11.5 3.5-16.5 1-1.5 2.4-5.1 3-8 .6-3 1.6-5.9 2.1-6.6.6-.7.5-1.4-.2-1.8-.8-.5-.7-1.1.2-2.2 1.6-2 1.9-4.4.7-5.9-.6-.8-.3-1.3 1.1-1.7 2-.5 2.8-2.7 1-2.7-1.4 0-.8-6.9.7-7.4.8-.3 1-1.7.6-3.9-.3-2-.1-3.7.6-4.1.6-.4 1.1-2 1.1-3.5 0-1.6.7-4.8 1.5-7.1s2-7.2 2.5-10.9c1.7-10.8 2-11.8 4.3-12.9 1.2-.6 1.7-1.1 1-1.1-.8-.1-1-1.7-.6-5.5.5-4.7.3-5.5-1.4-6.5-1.1-.5-2.3-.7-2.7-.4-.3.3-.6-1.7-.6-4.6 0-3.2-.4-5-1-4.6-.6.3-1.3-.1-1.6-.9-.3-.9-1.4-1.6-2.4-1.6s-2-.6-2.2-1.3c-.3-.6-1.8-1.3-3.4-1.4-1.6 0-5.8-.5-9.4-.9-8-.9-10.1-.9-17 0-3 .4-7.4.8-9.6.7-3.2 0-4.3.4-4.6 1.7-.3 1.1-5.2 4.1-12.2 7.6-7.1 3.5-14.1 7.9-18.2 11.3-5.2 4.5-6.7 5.4-7.5 4.2-.7-1.1-.9-.9-.9.9 0 1.3-.4 2.1-.9 1.8-1-.7-.2-5.6 1-5.6.5 0 .9-.5.9-1 0-.6-.7-1-1.5-1s-1.5-.4-1.5-.9.7-1.1 1.5-1.5c1-.3 1.5-1.9 1.5-4.6 0-2.2.5-4 1-4 .6 0 1-2.8 1-6.4 0-3.6.4-6.8 1-7.1 1-.6 3.2-7.7 3.1-10.4 0-.9-.7-5.2-1.5-9.5-.9-4.3-1.3-8.3-1-8.7.3-.5 0-.9-.5-.9-.6 0-1.1-1.1-1.1-2.4 0-1.4-1.1-3.7-2.4-5.3-3.6-4.3-5.9-12.6-5.3-18.7.5-4.5 1.1-8 1.7-9.6.1-.3.2-.8.1-1.2 0-.4.5-.5 1.3-.2.7.3 1.8-.2 2.5-1 1-1.2 1.6-1.3 3.2-.3 1.7 1 2.3.9 3.5-.8 2.5-3.5 10.8-11.5 11.9-11.5.7 0 2.2-1.1 3.4-2.4 3-3.2 5.8-3.9 7.1-1.8.9 1.6.9 1.6 1-.1 0-.9.5-1.7 1-1.7.6 0 1 .9 1 2 0 2.2 1.6 2.7 2.3.7.3-.9.7-.9 2 .1 1.3 1.1 1.7 1 2.5-.4.8-1.5 1.3-1.6 2.5-.6s1.8 1 3-.3c1-.9 1.8-1.1 2.2-.5.8 1.2 3.8.8 5.9-.9 1.3-1.1 1.7-.9 2.7 1.3 1.3 2.7 2.9 3.5 2.9 1.3 0-.7.9-1.8 2-2.5 1.7-1.1 2-1 2 .7 0 1.1-.5 2.1-1.2 2.3-.9.3-.9.6 0 1.2.7.4 1.2.2 1.2-.4 0-.6.5-.8 1-.5.6.3 1.7-.1 2.6-.9.8-.9 2.3-1.6 3.3-1.6.9 0 2.2-.5 2.8-1.1.8-.8 1.7-.8 3.2 0 1.8 1 2.2.9 3.1-1.4.5-1.4 1.6-2.5 2.5-2.5.8 0 1.5-.5 1.5-1 0-1.6 3.3-1.1 6.4.9 3.2 2.1 4.9 1.9 3.9-.4-.3-.8 0-1.5.6-1.5s1.1.4 1.1.8c0 1.1 23.7 1.4 24.4.3.3-.5 5.9-1.2 12.3-1.6 6.5-.3 13.4-1.1 15.3-1.5 7.6-1.9 13.6-4.5 15.3-6.7 1.1-1.3 2.4-2 3.5-1.7 1.4.5 1.5.4.2-.5-.8-.5-1.1-1.3-.7-1.7.3-.4 1.3-.1 2.2.6 1 .9 1.5.9 1.6.1.1-.6.3-1.6.4-2.1.1-.6.3-1.3.4-1.8.1-.4.6 0 1.1.8.8 1.2 1 1.2 1 .1 0-1.1.3-1.1 1.5-.1 1.3 1 1.9 1 3.3-.4 1-.9 2.4-1.6 3-1.6.7 0 1.2-.5 1.2-1 0-1.6 1.4-1.1 4.3 1.6 1.5 1.4 2.5 2.9 2.2 3.4-.3.5-.1 1.1.5 1.5 1.3.8 1.2-.2-.5-5-2-5.6-1.9-6.9.5-4.5 1.1 1.1 2 2.8 2 3.8s.7 2.7 1.5 3.8c1.4 1.7 1.5 1.4 1.4-4.6-.1-8.6-.1-8.4 1.7-6.5 1.4 1.3 1.9 1.4 2.5.3.7-1 .9-.8.9.6 0 1.5.3 1.6 1.4.7 1.1-.9 1.7-.6 2.7 1.9.8 1.6 1.7 3 2.1 3 .4 0 3.9 4.2 7.7 9.3 7.8 10.4 12.6 20.5 14.1 30.3.6 3.5 1.5 7.5 2 9 .7 1.7.7 3.1.1 3.8-.7.8-.6 3.1.3 6.9.7 3.1 1 5.8.6 5.9-1.1.4-1.8 12.8-.8 12.8.5 0 .7.4.4.8-.7 1.2 3.6 17.8 5.8 22.4 1 2.1 2.2 3.8 2.7 3.8s.9 1.1.9 2.4c0 1.3.7 2.6 1.5 3 .8.3 1.5 1.3 1.5 2.2 0 1 .6 2.5 1.4 3.3.7.9 2.1 5 3 9.1 2 8.7 4.6 17.9 7.4 26.5 1.1 3.3 2.6 8 3.2 10.5.7 2.5 1.7 5.7 2.2 7.3.6 1.5 1.1 3.9 1.1 5.3 0 1.7.4 2.3 1.3 2 1.7-.6 2.6 7.3 1.9 17.4-.3 4.1-.5 9-.6 10.7 0 2.2-.5 3.3-1.5 3.3-.8 0-1.4.4-1.4 1-.3 5.7 0 16.4.6 19.8.5 3.3 1.2 4.4 3 4.8 1.2.3 2.7.3 3.3 0 .5-.4 1.2-.2 1.6.4.9 1.5 4.1 1.2 5.5-.5.7-.8 1.8-1.4 2.4-1.3.6.2 2.4-1 4-2.6 2.7-2.8 2.8-3.3 3.3-15 .8-21.9.8-33-.1-42.8-.9-9.5-.9-9.6 1.7-12.2l2.6-2.6 1.7 2.6c1.7 2.4 1.7 3.1 0 11.5l-1.7 8.9 2.6 4.3c1.3 2.4 4.5 5.8 7 7.6 4.9 3.5 4.9 3.4 1.9 14.2-.6 2.2 4.1 3.4 7.6 1.9 2.7-1.1 6-7.3 6-11.1 0-.9.3-1.9.7-2.3 1.3-1.3 3.3-8.1 3.3-11.4 0-4.3-2.4-8.9-5.2-9.8-1.3-.4-4.2-.6-6.4-.5-5.4.3-8.8-2.9-8-7.3.3-1.6.6-3.3.6-3.8 0-1.2 5 1.8 6.7 4 1.8 2.2 4.3-.2 4.3-4.2.1-4.5 3.4-11.3 6.1-12.1 1.8-.6 2.8-.1 4.9 2.5 2.4 3 2.6 3.8 2.3 11.6-.3 5.4 0 8.4.7 8.4.5 0 1 .8 1.1 1.7 0 1.6.2 1.5 1-.2.6-1.4.8 1 .5 7.2-.3 5.1-.1 9.3.3 9.3 1.1 0 3.9-6.3 5.5-12.7.8-3.2 1.7-10.8 2.1-16.8.6-10.2.5-11.3-1.7-15.5-1.8-3.4-2.9-4.6-5-4.8-3.1-.4-11.8 3.1-11.8 4.7 0 .6-.5 1.1-1.2 1.1-.6 0-2 .8-3 1.7-2.2 2-3.1 1.1-4.7-4.6-.8-2.7-.7-3.8.7-5.7.9-1.3 2.5-2.6 3.4-2.9.9-.3 2-1.5 2.4-2.7.6-2-.8-13.9-2.7-22.5-.5-2.3-.9-5.3-.9-6.7 0-3.2-2-7.7-3.1-7-.5.3-.9-.2-.9-1.1 0-.9.5-1.3 1-1 .6.4 1-.7 1-2.6 0-2.7-.2-3-1.5-1.9s-1.5.3-1.7-6.1c-.3-12.1-1.3-20.8-3.5-29.4-.8-3.3-1.7-8.3-1.9-11.1-.2-2.8-1.1-7-1.9-9.3-1.3-3.7-1.3-4.5-.1-5.7.8-.7 1.6-1.9 1.9-2.6.3-.9 1.3-.6 3.7 1.1 2.3 1.7 3.7 2.1 5.1 1.4 1.9-.8 1.9-1-1-5.3-5-7.6-21.1-23.9-32-32.7-5.8-4.5-10.6-8.1-10.8-7.9-.7.6 5 15.1 8.5 21.9 2.6 5 3.2 7.1 2.4 7.9-.8.8-1.3.3-1.8-1.8-.4-1.6-1.5-4-2.4-5.4-1.5-2.2-10-21.4-10-22.5 0-1.4-8.3-8.5-9.9-8.5-1.1 0-2.6-.6-3.3-1.3-2.2-2.2-12.3-6.6-18.7-8.1-3.3-.8-9.3-3.2-13.3-5.4-26.7-14.6-65.6-27.3-84.2-27.4-5.2 0-6.2-.4-9.6-3.4-4.4-4-9.6-4.5-14.5-1.5zm-16.1 29.6c.3.8.1 1.5-.4 1.5-.6 0-1-.7-1-1.5s.2-1.5.4-1.5.6.7 1 1.5zm66.9 0c-.3.9-.8 1.4-1 1.1-.3-.3-.2-.9.2-1.5.9-1.6 1.5-1.3.8.4zm-3.7 1c1.1 2.7-.2 3.7-1.4 1.1-.7-1.6-.8-2.6-.1-2.6.5 0 1.2.7 1.5 1.5zm-36.6 4.7c0 .2-.7 2.1-1.5 4.3-1.2 3.5-1.4 3.6-1.5 1.3 0-3.2.9-5.8 2.1-5.8.5 0 .9.1.9.2zm5.1 6c2 1.7 4 6.6 3 7.3-.5.2-1.6-1.1-2.5-3-1-2.1-2.2-3.2-3-2.9-1.5.6-2.8-4-1.8-6.5.4-1.1.9-.9 1.7 1.2.6 1.5 1.8 3.2 2.6 3.9zm23-1.5c-1 1.7-1 1.6-1.1-.3 0-2.3 1.3-4.1 1.8-2.5.2.6-.1 1.8-.7 2.8zm-40.7 2.6c.8 1.2.7 2-.6 2.9-.8.7-1.8 2-2.2 2.8-.3 1-.5.8-.3-.5.1-1.1-.2-2.5-.6-3.2-.9-1.5.2-4.5 1.6-4 .6.2 1.5 1.1 2.1 2zm55.2-.8c.8 2.1-.6 4.1-1.7 2.4-1.2-1.9-1.1-3.9.1-3.9.6 0 1.3.7 1.6 1.5zm37.6 1.1c1 .4 2 2.1 2.4 4.3.4 2 1.1 4.5 1.6 5.6.9 2 .9 2-.6.1-.9-1.1-1.6-2.5-1.6-3.2 0-.7-1.3-2.4-3-3.7-3-2.5-4.2-5.4-1.7-4.3.6.3 2 .9 2.9 1.2zm-30.4 2.3c.4 2.8-1.3 2-2.1-.9-.3-1.4-.1-2 .6-1.7.7.2 1.4 1.4 1.5 2.6zm17.2-1.7c0 .4.7.8 1.5.8s1.5.9 1.5 2c0 1.3-.7 2-2 2s-2-.7-2-2c0-1.1-.7-2-1.5-2s-1.5-.4-1.5-.8.9-.8 2-.8 2 .4 2 .8zm-74.7 3.9c.3 1.2 0 2.8-.9 3.6-1.2 1.3-1.4 1-1.4-2.1 0-3.9 1.4-4.8 2.3-1.5zm98.7-.5c0 .8-.4 1.2-1 .9-.5-.3-1-1-1-1.6 0-.5.5-.9 1-.9.6 0 1 .7 1 1.6zm-20 3.3c0 .5.3 1.8.6 2.8.6 1.6.5 1.6-.9-.2-1.9-2.3-2.1-3.5-.7-3.5.6 0 1 .4 1 .9zm36.7 8c-1.3.5-6.4-4.8-7.1-7.3-.4-1.5.6-.9 3.7 2.4 2.3 2.5 3.8 4.7 3.4 4.9zm-8.2.6l.7 3-2.1-3c-1.1-1.7-2.1-3.7-2.1-4.5 0-2.5 2.8 1 3.5 4.5zm-37.1-2.9c.3.8.2 1.2-.4.9-.6-.3-1-1-1-1.6 0-1.4.7-1.1 1.4.7zM392 139c0 .5-.5 1-1.1 1-.5 0-.7-.5-.4-1 .3-.6.8-1 1.1-1 .2 0 .4.4.4 1zm8 5.4c0 .3-.4.8-1 1.1-.5.3-1 .1-1-.4 0-.6.5-1.1 1-1.1.6 0 1 .2 1 .4zm10 9.3c5.9 7.6 11 16.7 11 19.5 0 2.1 0 2.1-1.4.3-.8-1.1-1.2-2.3-1-2.7.7-1.1-2.6-5.8-4.1-5.8-.8 0-1.9-1.7-2.5-3.8-.7-2-2.6-5.2-4.3-7-2.3-2.3-2.7-3.2-1.5-3.2.9 0 2.6 1.2 3.8 2.7zm-24.3 63.5c-.3.8-.6.5-.6-.6-.1-1.1.2-1.7.5-1.3.3.3.4 1.2.1 1.9zm52 13c-.3.8-.6.5-.6-.6-.1-1.1.2-1.7.5-1.3.3.3.4 1.2.1 1.9zm8.3 8.9c0 1.1-.4 1.7-1 1.4-.5-.3-1-1.3-1-2.1s.5-1.4 1-1.4c.6 0 1 .9 1 2.1zm4.7 17.1c-.3.8-.6.5-.6-.6-.1-1.1.2-1.7.5-1.3.3.3.4 1.2.1 1.9zm2.3 6.8c.1 1.4.7 4.2 1.4 6.3.8 2 1 4 .5 4.3-.5.3-.9-.4-.9-1.5 0-1.2-.6-2.1-1.4-2.1-1 0-1.4-1.6-1.5-6.3 0-4.3.2-5.7.9-4.7.5.8 1 2.6 1 4zm-298 29.7c0 .5-.4 1.5-1 2.3-.6.9-.5 1.7.2 2.1.9.6.8 1.2-.1 2.3-.7.8-1.1 1.9-.8 2.3.3.4.1 3.6-.4 7.1-.7 4.9-.6 6.8.6 8.5.8 1.2 1.4 3.1 1.4 4.2 0 5 2.4 13.7 4 14.3.9.3 2.2 1.4 2.9 2.3 1.3 1.9 9.5 5.2 15.5 6.3 2.1.4 3.6 1 3.3 1.4-.2.4 3 .6 7.2.6 12.4-.3 18.2.6 18.2 2.6s3 3.6 3.9 2.1c.4-.5 1.8-1.2 3.3-1.6 1.4-.4 5.1-2.9 8.2-5.6 3.1-2.8 6-4.8 6.6-4.4 1.4.8 1.3 10.2-.2 20-1.2 8.4-2.9 11.9-10 20.9-2.1 2.7-3.7 5.4-3.4 6.1.2.6-1.4 2.6-3.5 4.5-2.1 1.8-3.9 4.1-3.9 5.1s-.5 2.1-1 2.4c-.6.4-.8 1.1-.5 1.6.4.5-.5 1.3-1.8 1.8-1.6.6-2.8 2.1-3.2 4-.4 1.7-1.2 3.1-1.8 3.1-.7 0-1.8 1.3-2.5 2.9-1.1 2.4-2 3-5 3.3-3.5.3-3.7.5-3.7 3.9 0 2.5-.4 3.5-1.2 3.2-.7-.3-1.3-1.4-1.3-2.4 0-2.1-1.6-2.6-2.2-.7-.7 2.1-5.2 1.6-7.5-.9-1.3-1.3-2.3-2.8-2.3-3.2 0-.5-1.7-1.2-3.7-1.6-2.7-.5-3.3-.9-2.2-1.6 1.1-.7 1.1-.9.1-.9s-1-.4.2-1.5c1.7-1.7 1.1-4.5-.9-4.5-1.3 0-3.3-7-4.2-15-.3-2.4-1.2-5.4-1.9-6.6-.8-1.2-1.1-2.9-.8-3.9.5-1.3.4-1.6-.4-1.1-.8.4-1.2 0-1.2-1.1-.1-1.4-.4-1.3-1.5.7-1.7 2.9-1.9 6-.5 6 .6 0 1 1.6 1 3.5s-.3 3.5-.8 3.5c-.8 0-4.6-15.8-6.3-26.5-1.3-8.5-.3-59 1.3-65 .6-2.2 1.1-4.8 1-5.8 0-.9.6-1.7 1.4-1.7.8 0 1.4.3 1.4.7zm295.9 8c1.5 3.2.1 5.1-2.1 2.9-.9-.8-1.8-1.2-2.2-.9-.3.4-.6 0-.6-.8 0-1.5 1.9-3.9 3-3.9.4 0 1.2 1.2 1.9 2.7zM452 318c0 .5-.4 1-1 1-.5 0-1-.5-1-1 0-.6.5-1 1-1 .6 0 1 .4 1 1zm34 94c1.2.8 1 1-1 1.1-1.4 0-3.7.3-5.2.5-1.6.3-2.8 0-2.8-.5 0-1.8 6.6-2.7 9-1.1zm-180.4 2.5c.9 1.4 2.1 2.2 2.6 1.9 1.4-.9 11.9 1.5 14.2 3.1 1 .8 1.5 1.8 1.1 2.4-.8 1.4-5.2 1.4-6.1 0-.3-.6-1.7-.8-3-.5-1.3.4-4.3.1-6.6-.4-5.2-1.3-7.2-1.8-11.8-2.5-1.9-.3-5-.8-6.8-1.1-1.8-.3-3-.9-2.7-1.5.4-.5 1.1-.7 1.6-.4.5.4.9.1.9-.5 0-.7.8-.9 2-.5 1.3.4 2 .2 2-.7.1-.8.6-.6 1.5.6 1.5 2 5.2 1.5 3.9-.6-.5-.8 0-.9 1.4-.6 1.2.4 2.2.2 2.2-.3 0-1.7 2-.9 3.6 1.6zm188.7-1.8c-.7.2-1.9.2-2.5 0-.7-.3-.2-.5 1.2-.5s1.9.2 1.3.5zm-23 1c-.7.2-2.1.2-3 0-1-.3-.4-.5 1.2-.5 1.7 0 2.4.2 1.8.5zm31.2 1.3c.3.5-.1 1-.9 1s-1.8-.5-2.1-1c-.3-.6.1-1 .9-1s1.8.4 2.1 1zm14-.3c-1.1.3-2.4.9-3 1.3-1.4 1.1-8.2 2.4-7.2 1.4 1.1-1.2 7.7-3.2 10.2-3.2h2l-2 .5zm-232.8 2.9c-.3.3-1.2.4-1.9.1-.8-.3-.5-.6.6-.6 1.1-.1 1.7.2 1.3.5zm-25.1 3.5c.9 1.4-1.6 3-3.8 2.5-1-.2-2.1 0-2.4.5-.3.5-1.2.9-1.9.9-2.5 0-.5-2.6 2.8-3.7 4.5-1.4 4.5-1.4 5.3-.2zm12.9.9c-.3.5-1.5 1-2.6 1-1 0-1.9-.5-1.9-1 0-.6 1.2-1 2.6-1 1.4 0 2.3.4 1.9 1zm-23.9 4.5c-.3.9-1.1 1.3-1.6 1-.8-.5-.7-1.1.1-2.1 1.4-1.8 2.4-1.1 1.5 1.1zm-7.3 1.1c.9.9-.4 3.4-1.8 3.4-.7 0-1.5.7-1.9 1.5-.6 1.8-3.6 2-3.6.3 0-1.2 4.7-5.8 6-5.8.4 0 .9.3 1.3.6zm129.1 1.9c.3.8 0 1.7-.6 2.1-1.1.7-2.8-1.3-2.8-3.3 0-1.6 2.7-.6 3.4 1.2zm3.6 1.5c0 .5-.4 1-1 1-.5 0-1-.5-1-1 0-.6.5-1 1-1 .6 0 1 .4 1 1zm-4.7 5.5c1.2.8 1.5 1.5.8 2-.6.3-1.1.1-1.1-.4 0-.6-.6-1.1-1.3-1.1-.7 0-2.2-.7-3.3-1.6-1.8-1.4-1.8-1.5.6-.8 1.4.4 3.3 1.2 4.3 1.9zm-55.9 3.4c1.1 3.7-.9 11-3.3 11.9-2.1.8-5.1-3.5-5.1-7.3 0-3.5 4.1-9 6.3-8.2.6.2 1.6 1.8 2.1 3.6zm71.3-.2c-.3 1-.5.4-.5-1.2 0-1.7.2-2.4.5-1.8.2.7.2 2.1 0 3zm-83.1.8c1.9 4.5 1.8 10-.2 11.9-1.7 1.8-7.4 2.2-7.4.6 0-.6-.4-1-1-1-.5 0-1 1.1-1 2.4 0 1.3-.7 2.7-1.6 3-2.5.9-9.3.7-11.4-.4-1.4-.7-3.1-.5-6.5 1-4.8 2-8.5 2.6-8.5 1.2 0-.4-.4-1.3-.9-2.1-.8-1.2-1.2-1.2-2.6.2-1.5 1.5-1.8 1.5-4 .1-2.4-1.6-3.5-4.1-3.5-8.5 0-4 5-5 6.4-1.3.8 2 2.6.8 2.6-1.6 0-1.1 1.1-2.7 2.4-3.5 4.3-2.8 9.7 0 11.6 6.1.8 2.8.8 2.8.9-.9.1-4.3 4.5-9.7 7.8-9.7 2.8 0 6 2.6 6.8 5.7l.7 2.8 1.1-3c1.2-3.7 3.5-6.5 5.4-6.5.8 0 2.1 1.6 2.9 3.5zm18.9 2.3c0 3.1-1.9 2.8-2.3-.4-.3-1.8 0-2.5 1-2.2.7.3 1.3 1.4 1.3 2.6zm42.9 3.7c-.7 1.7 1.1 2.1 2.1.5.9-1.5 2.5-1.2 2.5.5 0 .8-.7 1.5-1.5 1.5s-1.5.4-1.5 1c0 .5.5 1 1.2 1 .6 0 .9.2.6.5-.9.9-3.8-.7-3.8-2.1 0-.8-.5-1.4-1.1-1.4-.8 0-.8-.5.1-1.5.7-.8 1.4-1.5 1.6-1.5.2 0 .1.7-.2 1.5zm26.6 4.9c0 .3-.4.8-1 1.1-.5.3-1 .1-1-.4 0-.6.5-1.1 1-1.1.6 0 1 .2 1 .4zm-141.6 2.2c.3.8.2 1.2-.4.9-.6-.3-1-1-1-1.6 0-1.4.7-1.1 1.4.7zM334 460c0 .5-.6 1-1.4 1-.8 0-1.7 1.5-2 3.5-.7 3.3-.7 3.4-2.6 1.7-2.4-2-2.6-3.7-.4-2.8.8.3 1.3.2.9-.3-1-1.8.7-4.1 3.1-4.1 1.3 0 2.4.4 2.4 1zm-34.5 4c.3.5.1 1-.4 1-.6 0-1.1-.5-1.1-1 0-.6.2-1 .4-1 .3 0 .8.4 1.1 1zm34 2.9c-.9 1.6-2.5.3-1.8-1.5.4-1 .9-1.2 1.5-.6s.7 1.5.3 2.1zm-39.5.1c0 .5-.4 1-1 1-.5 0-1-.5-1-1 0-.6.5-1 1-1 .6 0 1 .4 1 1zm-30.5 1.1c1 1.5-.1 2.3-2 1.5-.9-.3-1.3-1-1-1.6.8-1.3 2.2-1.3 3 .1zm63.5 1.1c0 1.7.3 1.9.9 1 .7-1.1.9-1.1 1.4.2.4 1 .1 1.6-.7 1.6-.8 0-2.3.3-3.3.6-1.5.5-1.6.4-.3-.6 1.2-.9 1-1-1.3-.5-1.6.3-2.7.2-2.4-.2.2-.4.7-1.6 1-2.6 1-2.6 4.7-2.2 4.7.5zm-46.8 1c-.6.6-1.6.7-2.2.3-.9-.6-.9-.9.1-1.6 1.7-1 3.4 0 2.1 1.3zm319.8 6.9c0 .5-.7.9-1.5.9-1.5 0-2-1.2-.9-2.3.8-.8 2.4.1 2.4 1.4zM291.6 513c1.1 0 1.3.6.9 2-.4 1.1-.2 2 .4 2 .6 0 1.1-.6 1.1-1.3 0-1.6 8-4 10.3-3.1 2.5.9 1.6 4-1 3.7-1.5-.2-2.2.4-2.5 2.1-.3 1.5-.1 2.3.6 2 .6-.2 1.2.7 1.2 2.1.1 1.4-.2 2.5-.7 2.5-.5 0-.9-.7-.9-1.5 0-2.2-2.4-1.8-6.5.9-3.4 2.3-6.5 2.5-6.5.5 0-1.2-3.7-1.1-4.5.1-1 1.5-2.5 1.2-2.5-.6 0-.9-.6-1.4-1.2-1.1-.7.2-1.2 1.3-1 2.3.2 1.3 0 1.5-.6.7-.4-.7-2-1.4-3.4-1.5-1.8-.2-2.4-.7-2-1.8.3-.8-.4-.4-1.6 1-1.7 2-2.4 2.3-3.8 1.4-2.8-1.7-2.8-3.3 0-4.4 1.4-.5 2.6-1.4 2.6-2 0-.6.5-.8 1-.5.6.3 1 0 1-.8 0-2.4 2.7-2.7 5.2-.7l2.3 1.8-3 1.3c-2.8 1.2-2.9 1.3-.7 1.6 2.8.5 5.4-1.8 4.1-3.8-1.4-2.3-1-3.2.7-1.5.8.9 2.3 1.6 3.2 1.5 1.1 0 1.2-.2.5-.6-2-.8-1.5-2.3.7-2.3 1.2 0 2-.7 2-1.6 0-1.1.5-1.4 1.6-1 .9.3 2.2.6 3 .6zm20.6 1.2c-.6.6-1.5.8-1.9.4-.4-.4-.1-1.1.7-1.6 1.9-1.2 2.7-.3 1.2 1.2zm3.8-.8c0 .3-.4.8-1 1.1-.5.3-1 .1-1-.4 0-.6.5-1.1 1-1.1.6 0 1 .2 1 .4zM272 530c0 .5-.5 1-1.1 1-.5 0-.7-.5-.4-1 .3-.6.8-1 1.1-1 .2 0 .4.4.4 1z"/><path d="M155 372.4c0 .8-.3 2.1-.6 3-.3.9-.1 1.6.5 1.6s1.1-.9 1.1-2 .5-2 1-2c.6 0 1-.5 1-1 0-.6-.7-1-1.5-1s-1.5.6-1.5 1.4zM292.1 521.4c-.7.8-.8 1.7-.3 2 .6.3 1.5-.1 2.1-.8.7-.8.8-1.7.3-2-.6-.3-1.5.1-2.1.8zM342 73c3.4 1.1 6 1.1 3.5 0-1.1-.5-2.9-.8-4-.8-1.6 0-1.5.2.5.8zM354.5 76.9c14.5 5.8 24 11.7 32.2 20.1 3.7 3.8 4.3 4.2 4.9 2.6.5-1.4-.2-2.6-2.7-4.8-9.5-8-21.7-15-32.7-18.7-8.8-3-9.9-2.5-1.7.8zM241.8 78.3c-4.8 1.7-8.6 3.2-8.5 3.3.1.1 3.7-.1 7.9-.3 5.7-.4 8.2-1.1 9.7-2.5 2.4-2.1 2.7-3.8.9-3.7-.7 0-5.2 1.5-10 3.2zM270 89c0 .5.5 1 1.1 1 .5 0 .7-.5.4-1-.3-.6-.8-1-1.1-1-.2 0-.4.4-.4 1zM242 98.1c0 1.8.2 1.9 1.5.9.8-.7 1.5-1.6 1.5-2.1s-.7-.9-1.5-.9c-.9 0-1.5.9-1.5 2.1zM299.5 104c-.3.5-.1 1 .4 1 .6 0 1.1-.5 1.1-1 0-.6-.2-1-.4-1-.3 0-.8.4-1.1 1zM301 254.4c-.5.5-4.3 1-8.4 1.1-4.1 0-8 .6-8.8 1.2-1.6 1.4-5.8.6-5.8-1.1 0-.7-.3-.6-.8.2-.5.7-2.6 1.3-4.8 1.4-4.2.1-11.4 3.6-11.4 5.5 0 .6-.9 1-2 .8-1.4-.3-2 .2-2 1.5 0 1-.5 2-1.1 2.2-.7.2-.7 1.7 0 4.7.8 3.9.7 4.4-1 4.8-2.5.7-2.4 1 1.1 6.2 1.7 2.4 2.8 4.6 2.6 4.8-.7.7 3.3 4.3 4.7 4.3 3 0 6.6 5 7.3 10 .4 2.8 1 5 1.5 5s.9 1.6.9 3.5c0 2.1.8 4.3 1.9 5.4 1.4 1.4 1.6 2.1.8 2.5-.7.2-.4.5.6.5.9.1 1.7.7 1.7 1.5 0 .7.9 1.6 2 1.9 1.1.3 2 .1 2-.5 0-1.4 4.8-.1 6.7 1.7.8.8 2.5 1.5 3.7 1.5 1.3 0 3.5.9 4.9 2 1.4 1.1 3 2 3.6 2 .6 0 2.8.9 4.9 2 3.8 2 15.9 3.5 19.3 2.5 1-.4 1.6-1.2 1.3-1.9-.8-2 4.1-3.9 8.5-3.3 2.3.3 4.1.2 4.1-.3 0-.4 3.1-1 6.9-1.2 4.6-.4 7.5-1.1 8.6-2.2.9-.9 2.4-1.6 3.4-1.6s2.6-.9 3.6-2 3.4-2.5 5.4-3.1c5.6-1.7 6.7-3 7.5-8.7.6-4.9.5-5.4-1.4-5.9-2-.5-2.9-3.3-1-3.3.6 0 1-.7 1-1.5s.5-1.5 1.1-1.5c.6 0 .8-.7.5-1.6-.4-.9 0-2.4.7-3.3 2.4-2.7 2.9-6.8 1.1-7.5-1-.4-1.4-1.4-1.1-2.6.3-1.2 0-2-.8-2-.7 0-1.8-1.4-2.4-3-.5-1.7-1.6-3-2.3-3-.7 0-3.6-1.9-6.3-4.3-6.2-5.3-9.9-7.7-12.1-7.7-.9 0-3.2-1-5.2-2.2-4.2-2.6-13-4.8-16.7-4.1-1.4.3-3.6.1-4.8-.5-3.1-1.5-22.3-2.2-23.7-.8zM252.8 283.7c.7.3 1.6.2 1.9-.1.4-.3-.2-.6-1.3-.5-1.1 0-1.4.3-.6.6zM443.3 351.7c-1.3.2-2.3.9-2.3 1.4 0 1.5 5.3.7 5.8-.9.2-.6 0-1.1-.5-1.1-.4.1-1.8.4-3 .6zM470.5 358.6c-3.5 3.2-4.6 4.7-3.8 5.5 1.5 1.5 4.3-.4 7.1-4.8 3.5-5.3 2.2-5.6-3.3-.7zM444.8 360.2c-5.9 3-4.8 5.5 1.5 3.6 3.5-1.1 5.3-3.1 4.1-4.9-.7-1.2-1.1-1.1-5.6 1.3zM437.5 382.2c-.2.7-.6 3.6-.9 6.5-.6 5-.6 5.1 2.1 5.7 1.6.3 6 .5 9.8.3 5.8-.2 7.8-.7 11.9-3.2 2.7-1.7 5.1-3.6 5.3-4.2.5-1.4-2.6-1-3.6.5-1.1 1.8-5.4 3-9.1 2.6-7.2-.8-9.5-1.9-11.5-5.7-2.1-3.8-3.3-4.6-4-2.5zM422.5 385.9c-.3.5-.1 1.2.5 1.6.5.3 1-.1 1-.9 0-1.8-.6-2.1-1.5-.7zM435.1 398.6c0 1.1.3 1.4.6.6.3-.7.2-1.6-.1-1.9-.3-.4-.6.2-.5 1.3zM368 405.1c0 1.1.5 1.7 1 1.4.6-.3 1-1.3 1-2.1s-.4-1.4-1-1.4c-.5 0-1 .9-1 2.1zM412 405c0 .5.5 1 1 1 .6 0 1-.5 1-1 0-.6-.4-1-1-1-.5 0-1 .4-1 1zM432.3 405.3c-2.5 1.1-2.9 2.2-1.3 3.2 1.2.8 1.3 4.5.1 4.5-1.1 0-3.1 9.9-2.1 10.5.4.3 1.1-1 1.4-2.8.3-1.7 1.6-5.2 2.9-7.7 2.8-5.6 2.3-9.2-1-7.7zM372.3 414.3c-3 .9-4.7 3.7-2.3 3.7.6 0 1-.4 1-.9 0-.6 1.2-.6 3.2 0 3.2.9 5.1.4 3.2-.9-.6-.4-1.3-1.2-1.5-1.8-.3-.7-1.4-.7-3.6-.1zM409 420c0 .5.5 1 1 1 .6 0 1-.5 1-1 0-.6-.4-1-1-1-.5 0-1 .4-1 1zM421.3 426.6c-.3.8-.1 2 .6 2.7.8.8 1.1.4 1.1-1.6 0-3-.7-3.5-1.7-1.1zM412.5 442c-.3.5.1 1 1 1s1.3-.5 1-1c-.3-.6-.8-1-1-1-.2 0-.7.4-1 1zM386.5 443c-.3.5-.1 1 .4 1 .6 0 1.1-.5 1.1-1 0-.6-.2-1-.4-1-.3 0-.8.4-1.1 1zM403.2 444.2c-1.5 1.5-1.6 3.8-.2 3.8 1.2 0 2.3-2.5 1.8-4-.2-.7-.7-.7-1.6.2zM437 444c0 .5.5 1 1 1 .6 0 1-.5 1-1 0-.6-.4-1-1-1-.5 0-1 .4-1 1zM586.8 456.7c.7.3 1.6.2 1.9-.1.4-.3-.2-.6-1.3-.5-1.1 0-1.4.3-.6.6z"/></svg>